<?xml version="1.0" encoding="UTF-8"?>
<svg xmlns="http://www.w3.org/2000/svg" width="285" height="222" viewBox="0 0 285 222">
  <defs>
    <style>
      .st0 { fill: #e7d188; }
      .st1 { fill: #8fb996; }
      .st2 { fill: #2e4057; }
    </style>
  </defs>
  <!-- TINEDY text -->
  <path class="st2" d="M74.44,120.24h-12.9v33.47h-7.78v-33.47h-12.9v-6.88h33.58v6.88ZM79.45,153.71v-40.34h7.84v40.34h-7.84ZM103.55,127.79v25.91h-7.84v-40.34h6.25l20.85,26.59v-26.54h7.84v40.29h-6.53l-20.57-25.91ZM167.06,146.83v6.88h-28.01v-40.34h27.5v6.88h-19.66v9.72h16.99v6.36h-16.99v10.51h20.17ZM173.17,153.71v-40.34h14.66c4.39,0,8.07.91,11.02,2.73,2.96,1.78,5.17,4.21,6.65,7.27,1.48,3.03,2.22,6.4,2.22,10.11,0,4.09-.81,7.65-2.44,10.68-1.63,3.03-3.94,5.38-6.93,7.05-2.96,1.67-6.46,2.5-10.51,2.5h-14.66ZM199.82,133.48c0-2.61-.47-4.9-1.42-6.88-.95-2.01-2.31-3.56-4.09-4.66-1.78-1.14-3.94-1.7-6.48-1.7h-6.82v26.59h6.82c2.58,0,4.75-.57,6.53-1.71,1.78-1.17,3.12-2.76,4.03-4.77.95-2.04,1.42-4.34,1.42-6.88ZM215.89,113.36l9.94,18.98,10.11-18.98h8.47l-14.66,26.25v14.09h-7.78v-14.21l-14.6-26.14h8.52Z"/>
  <!-- SOLUTIONS text -->
  <path d="M57.07,182.12c-.98,0-1.86-.17-2.64-.51-.77-.35-1.37-.84-1.81-1.45-.44-.62-.67-1.34-.68-2.15h2.07c.07.7.36,1.29.85,1.77.51.47,1.25.7,2.22.7s1.65-.23,2.17-.68c.54-.47.81-1.07.81-1.79,0-.57-.16-1.03-.47-1.38-.31-.36-.7-.62-1.17-.81-.47-.18-1.1-.38-1.9-.6-.98-.26-1.77-.51-2.37-.77-.58-.26-1.09-.65-1.51-1.19-.41-.55-.62-1.29-.62-2.22,0-.81.21-1.53.62-2.15.41-.62.99-1.11,1.73-1.45.75-.34,1.61-.51,2.58-.51,1.39,0,2.53.35,3.41,1.04.9.7,1.4,1.62,1.51,2.77h-2.13c-.07-.57-.37-1.07-.89-1.49-.53-.44-1.22-.66-2.09-.66-.81,0-1.47.21-1.98.64-.51.41-.77,1-.77,1.75,0,.54.15.98.45,1.32.31.34.69.6,1.13.79.45.17,1.09.37,1.9.6.98.27,1.77.54,2.37.81.6.26,1.11.66,1.53,1.22.43.54.64,1.28.64,2.22,0,.72-.19,1.41-.58,2.04-.38.64-.95,1.16-1.7,1.56-.75.4-1.64.6-2.66.6ZM79.69,182.12c-1.38,0-2.64-.32-3.77-.96-1.14-.65-2.04-1.56-2.71-2.71-.65-1.16-.98-2.47-.98-3.92s.33-2.75.98-3.9c.67-1.17,1.57-2.07,2.71-2.71,1.14-.65,2.39-.98,3.77-.98s2.66.33,3.79.98c1.14.64,2.03,1.53,2.68,2.68.65,1.15.98,2.46.98,3.92s-.33,2.77-.98,3.92c-.65,1.15-1.55,2.05-2.68,2.71-1.14.64-2.4.96-3.79.96ZM79.69,180.44c1.04,0,1.97-.24,2.79-.72.84-.48,1.49-1.17,1.96-2.07.48-.9.72-1.93.72-3.11s-.24-2.23-.72-3.11c-.47-.9-1.12-1.58-1.94-2.07-.82-.48-1.76-.72-2.81-.72s-1.99.24-2.81.72c-.82.48-1.48,1.17-1.96,2.07-.47.88-.7,1.92-.7,3.11s.23,2.22.7,3.11c.48.9,1.14,1.58,1.96,2.07.84.48,1.78.72,2.81.72ZM99.75,180.4h5.2v1.58h-7.14v-14.85h1.94v13.27ZM117,167.12v9.4c0,1.32.32,2.3.96,2.94.65.64,1.56.96,2.71.96s2.03-.32,2.66-.96c.65-.64.98-1.62.98-2.94v-9.4h1.94v9.38c0,1.24-.25,2.28-.75,3.13-.5.84-1.17,1.46-2.02,1.88-.84.41-1.78.62-2.83.62s-2-.21-2.85-.62c-.84-.41-1.51-1.04-2-1.88-.48-.85-.72-1.9-.72-3.13v-9.38h1.94ZM146.72,167.12v1.58h-4.05v13.27h-1.94v-13.27h-4.07v-1.58h10.06ZM159.14,167.12v14.85h-1.94v-14.85h1.94ZM177.28,182.12c-1.38,0-2.63-.32-3.77-.96-1.14-.65-2.04-1.56-2.71-2.71-.65-1.16-.98-2.47-.98-3.92s.33-2.75.98-3.9c.67-1.17,1.57-2.07,2.71-2.71,1.14-.65,2.39-.98,3.77-.98s2.66.33,3.79.98c1.14.64,2.03,1.53,2.68,2.68.65,1.15.98,2.46.98,3.92s-.33,2.77-.98,3.92c-.65,1.15-1.55,2.05-2.68,2.71-1.14.64-2.4.96-3.79.96ZM177.28,180.44c1.04,0,1.97-.24,2.79-.72.84-.48,1.49-1.17,1.96-2.07.48-.9.72-1.93.72-3.11s-.24-2.23-.72-3.11c-.47-.9-1.12-1.58-1.94-2.07-.82-.48-1.76-.72-2.81-.72s-1.99.24-2.81.72c-.82.48-1.48,1.17-1.96,2.07-.47.88-.7,1.92-.7,3.11s.23,2.22.7,3.11c.48.9,1.14,1.58,1.96,2.07.84.48,1.78.72,2.81.72ZM207.07,181.97h-1.94l-7.8-11.82v11.82h-1.94v-14.87h1.94l7.8,11.8v-11.8h1.94v14.87ZM223.18,182.12c-.98,0-1.86-.17-2.64-.51-.77-.35-1.37-.84-1.81-1.45-.44-.62-.67-1.34-.68-2.15h2.07c.07.7.36,1.29.85,1.77.51.47,1.25.7,2.22.7s1.65-.23,2.17-.68c.54-.47.81-1.07.81-1.79,0-.57-.16-1.03-.47-1.38-.31-.36-.7-.62-1.17-.81-.47-.18-1.1-.38-1.9-.6-.98-.26-1.77-.51-2.37-.77-.58-.26-1.09-.65-1.51-1.19-.41-.55-.62-1.29-.62-2.22,0-.81.21-1.53.62-2.15.41-.62.99-1.11,1.73-1.45.75-.34,1.61-.51,2.58-.51,1.39,0,2.53.35,3.41,1.04.9.7,1.4,1.62,1.51,2.77h-2.13c-.07-.57-.37-1.07-.9-1.49-.53-.44-1.22-.66-2.09-.66-.81,0-1.47.21-1.98.64-.51.41-.77,1-.77,1.75,0,.54.15.98.45,1.32.31.34.69.6,1.13.79.45.17,1.09.37,1.9.6.98.27,1.77.54,2.37.81.6.26,1.11.66,1.53,1.22.43.54.64,1.28.64,2.22,0,.72-.19,1.41-.58,2.04-.38.64-.95,1.16-1.7,1.56-.75.4-1.64.6-2.66.6Z"/>
  <!-- Star icon -->
  <path class="st0" d="M156,51.53v-.07c-7.41-.04-13.4-6.05-13.42-13.47h-.16c-.02,7.41-6.01,13.42-13.42,13.47v.07c7.41.04,13.4,6.05,13.42,13.47h.16c.02-7.41,6.01-13.42,13.42-13.47Z"/>
  <!-- Leaf right -->
  <path class="st2" d="M183.84,52c0,22.56-18.29,40.84-40.84,40.84,0-22.56,18.29-40.84,40.84-40.84Z"/>
  <!-- Leaf left -->
  <path class="st1" d="M102,52c0,22.56,18.29,40.84,40.84,40.84,0-22.56-18.28-40.84-40.84-40.84Z"/>
</svg>
